# xmcd
# 
# Track frame offsets:
#     150
#     15592
#     32310
#     48547
#     62427
#     75187
#     87817
#     107375
#     126375
#     149205
#     166962
#     186060
# 
# Disc length: 2621
# 
# Revision: 13
# Processed by: cddbd v1.5.2PL0 Copyright (c) Steve Scherf et al.
# Submitted via: fre:ac v1.0.31
# 
DISCID=8e0a3b0c
DTITLE=Madredeus - Existir
DYEAR=1990
DGENRE=World
TTITLE0=Matinal (Vocal)
TTITLE1=O Pastor
TTITLE2=O Navio
TTITLE3=Tardes De Bolonha (Instrumental)
TTITLE4=O Ladrao
TTITLE5=Confissao
TTITLE6=O Pomar Das Laranjeiras
TTITLE7=Cuidado
TTITLE8=As Ilhas Dos Acores (Instrumental)
TTITLE9=O Menino
TTITLE10=Solsticio
TTITLE11=A Vontade De Mudar
EXTD=Teresa Salgueiro\nPedro Ayres Magalhares\nRodrigo Leao\nGabriel Gomes\nFrancisco Riberiro YEAR: 1990 ID3G: 80
EXTT0=
EXTT1=
EXTT2=
EXTT3=
EXTT4=
EXTT5=
EXTT6=
EXTT7=
EXTT8=
EXTT9=
EXTT10=
EXTT11=
PLAYORDER=
